<?xml version="1.0" encoding="utf-8"?>
<!-- Generator: Adobe Illustrator 21.1.0, SVG Export Plug-In . SVG Version: 6.00 Build 0)  -->
<svg version="1.1" id="Ebene_1_Kopie_2_Kopie_Kopie_Kopie_Kopie"
	 xmlns="http://www.w3.org/2000/svg" xmlns:xlink="http://www.w3.org/1999/xlink" x="0px" y="0px" viewBox="0 0 561.4 127.5"
	 style="enable-background:new 0 0 561.4 127.5;" xml:space="preserve">
<style type="text/css">
	.st0{fill:#0F64AA;}
	.st1{fill:#0D7E7F;}
	.st2{fill:none;stroke:#FFFFFF;stroke-width:5;stroke-linecap:round;stroke-miterlimit:10;}
</style>
<g>
	<path d="M168,88.9c0,7.5-2.7,13.2-8.1,17.1c-5.4,4-13.2,6-23.3,6c-10.2,0-18.3-1.5-24.4-4.7v-14c8.9,4.2,17.3,6.2,25,6.2
		c10,0,14.9-3,14.9-9c0-1.9-0.6-3.5-1.6-4.9s-2.9-2.7-5.5-4c-2.6-1.4-6-2.9-10.6-4.8c-8.8-3.4-14.7-6.8-17.9-10.2
		c-3-3.4-4.7-7.8-4.7-13.3c0-6.6,2.7-11.6,7.9-15.2c5.2-3.6,12.5-5.4,21.5-5.4c8.9,0,17.4,1.8,25.5,5.5l-5.2,12.3
		c-8.3-3.4-15.1-5.1-20.7-5.1c-8.6,0-12.8,2.5-12.8,7.3c0,2.4,1,4.4,3.3,6.1c2.3,1.6,7.1,3.9,14.6,6.8c6.4,2.5,10.8,4.7,13.7,6.8
		c2.9,2,4.9,4.3,6.4,7C167.2,82.1,168,85.2,168,88.9z"/>
	<path d="M216.3,112c-11.6,0-20.3-3.4-26.3-10.1c-6-6.8-9-16.5-9-29c0-12.8,3.1-22.7,9.4-29.6S205.7,33,217.6,33
		c8,0,15.3,1.4,21.8,4.5l-4.9,13c-6.8-2.7-12.6-4-17-4c-13.2,0-19.9,8.8-19.9,26.3c0,8.6,1.6,14.9,4.9,19.3
		c3.3,4.3,8.1,6.5,14.5,6.5c7.2,0,14.1-1.8,20.4-5.4v14.2c-2.9,1.7-6,2.9-9.2,3.6C224.9,111.6,220.9,112,216.3,112z"/>
	<path d="M322.5,110.6h-16.3V63.8c0-5.9-1.1-10.3-3.5-13.2s-6.1-4.3-11.3-4.3c-6.8,0-11.8,2-14.9,6.1s-4.8,10.8-4.8,20.4v37.9h-16.2
		V3.3h16.2v27.3c0,4.4-0.3,9-0.9,14h1c2.3-3.7,5.2-6.6,9.2-8.6c3.9-2,8.5-3,13.7-3c18.5,0,27.7,9.3,27.7,28L322.5,110.6L322.5,110.6
		L322.5,110.6z"/>
	<path d="M412.7,72.4c0,12.5-3.1,22.3-9.6,29.2c-6.4,7-15.3,10.5-26.7,10.5c-7.1,0-13.4-1.6-18.9-4.9s-9.6-7.9-12.6-13.9
		c-2.9-6-4.4-13-4.4-21c0-12.4,3.1-22,9.5-28.9s15.3-10.5,26.8-10.5c11,0,19.8,3.5,26.2,10.7C409.5,50.7,412.7,60.3,412.7,72.4z
		 M357.3,72.4c0,17.6,6.5,26.4,19.5,26.4c12.9,0,19.3-8.8,19.3-26.4c0-17.4-6.5-26.2-19.5-26.2c-6.8,0-11.7,2.3-14.8,6.8
		C358.8,57.5,357.3,63.9,357.3,72.4z"/>
	<path d="M499.1,72.4c0,12.5-3.1,22.3-9.6,29.2c-6.4,7-15.3,10.5-26.7,10.5c-7.1,0-13.4-1.6-18.9-4.9s-9.6-7.9-12.6-13.9
		c-2.9-6-4.4-13-4.4-21c0-12.4,3.1-22,9.5-28.9s15.3-10.5,26.8-10.5c11,0,19.8,3.5,26.2,10.7C496,50.7,499.1,60.3,499.1,72.4z
		 M443.6,72.4c0,17.6,6.5,26.4,19.5,26.4c12.9,0,19.3-8.8,19.3-26.4c0-17.4-6.5-26.2-19.5-26.2c-6.8,0-11.7,2.3-14.8,6.8
		C445.2,57.5,443.6,63.9,443.6,72.4z"/>
	<path d="M534,110.6h-16.2V3.3H534V110.6z"/>
</g>
<path d="M64,99.9H9.2c-5.1,0-9.2-4.2-9.2-9.2V33.2C0,28,4.2,24,9.2,24H64c5.1,0,9.2,4.2,9.2,9.2v57.3C73.2,95.7,69.1,99.9,64,99.9z"
	/>
<path d="M8,113.2c14.6-17.3,6.1-26.6,6.1-26.6c-1.1-4.4,22.6,6.8,22.6,6.8S17.4,106.3,8,113.2z"/>
<path class="st0" d="M71.1,105.8H16.4c-5.1,0-9.2-4.2-9.2-9.2V39.3c0-5.1,4.2-9.2,9.2-9.2h54.8c5.1,0,9.2,4.2,9.2,9.2v57.3
	C80.4,101.7,76.2,105.8,71.1,105.8z"/>
<path class="st0" d="M15.1,118.6C29.7,101.3,21.2,93,21.2,93c-1.2-4.4,22.6,6.8,22.6,6.8S24.4,111.7,15.1,118.6z"/>
<g>
	<path class="st1" d="M78.7,112.9H24c-5.1,0-9.2-4.2-9.2-9.2V46.3c0-5.1,4.2-9.2,9.2-9.2h54.8c5.1,0,9.2,4.2,9.2,9.2v57.3
		C88,108.7,83.9,112.9,78.7,112.9z"/>
	<path class="st1" d="M22.7,124.3c14.6-16.3,6.1-25,6.1-25c-1.2-4.2,26.1,6.4,26.1,6.4S32.1,117.8,22.7,124.3z"/>
</g>
<line class="st2" x1="31.7" y1="93.8" x2="71.6" y2="93.8"/>
<line class="st2" x1="31.7" y1="76.3" x2="71.6" y2="76.3"/>
<line class="st2" x1="31.7" y1="58.9" x2="71.6" y2="58.9"/>
</svg>
